<?xml version="1.0" standalone="no"?>
<!DOCTYPE svg PUBLIC "-//W3C//DTD SVG 20010904//EN"
 "http://www.w3.org/TR/2001/REC-SVG-20010904/DTD/svg10.dtd">
<svg version="1.0" xmlns="http://www.w3.org/2000/svg"
 width="300.000000pt" height="300.000000pt" viewBox="0 0 300.000000 300.000000"
 preserveAspectRatio="xMidYMid meet">
<metadata>
Created by potrace 1.10, written by Peter Selinger 2001-2011
</metadata>
<g transform="translate(0.000000,300.000000) scale(0.100000,-0.100000)"
fill="#000000" stroke="none">
<path d="M1223 1720 c0 -41 2 -58 4 -37 2 20 2 54 0 75 -2 20 -4 3 -4 -38z"/>
<path d="M1240 1720 c0 -56 1 -60 24 -60 29 0 76 36 76 59 0 28 -38 61 -70 61
-30 0 -30 0 -30 -60z"/>
<path d="M1145 1760 c-4 -6 8 -10 29 -10 20 0 36 5 36 10 0 6 -13 10 -29 10
-17 0 -33 -4 -36 -10z"/>
<path d="M1357 1733 c-15 -14 -6 -23 22 -23 16 0 33 -6 39 -12 13 -17 26 -369
14 -387 -8 -10 -11 -6 -16 16 -10 44 -47 74 -99 80 -38 5 -48 1 -80 -26 -21
-19 -37 -43 -39 -59 l-3 -27 -182 -3 -183 -2 0 25 c0 13 -13 39 -29 57 -26 29
-36 33 -79 33 -58 0 -97 -28 -110 -79 -11 -40 -28 -31 -25 13 5 68 56 112 153
132 57 12 85 25 180 85 73 46 119 57 215 52 89 -5 132 -21 195 -75 28 -25 45
-32 52 -25 7 7 -7 23 -44 52 -79 64 -109 73 -223 74 -111 1 -158 -15 -263 -87
-29 -19 -67 -38 -84 -42 -68 -13 -134 -38 -157 -59 -30 -27 -51 -76 -51 -119
0 -39 15 -57 47 -57 19 0 23 5 23 29 0 105 160 114 176 11 l7 -40 203 0 204 0
0 26 c0 89 125 122 165 43 8 -15 15 -35 15 -44 0 -24 31 -31 46 -10 11 14 14
65 14 212 0 193 0 194 -25 218 -23 24 -64 33 -78 18z"/>
<path d="M1145 1680 c3 -5 17 -10 30 -10 13 0 27 5 30 10 4 6 -8 10 -30 10
-22 0 -34 -4 -30 -10z"/>
<path d="M1530 1532 c0 -18 80 -182 89 -182 8 0 81 166 81 183 0 5 -10 7 -22
5 -15 -2 -25 -15 -35 -43 -7 -22 -16 -47 -19 -55 -4 -10 -14 5 -28 40 -16 40
-28 56 -44 58 -12 2 -22 -1 -22 -6z"/>
<path d="M1763 1530 c-50 -20 -60 -110 -17 -151 57 -54 154 -15 154 62 0 51
-8 67 -41 84 -31 17 -63 18 -96 5z m77 -50 c11 -11 20 -26 20 -33 0 -53 -77
-64 -95 -13 -8 24 -6 31 14 47 29 24 36 24 61 -1z"/>
<path d="M1932 1449 l3 -91 55 -1 c50 -1 55 1 58 21 3 19 -1 22 -32 22 l-36 0
0 70 c0 68 -1 70 -25 70 l-26 0 3 -91z"/>
<path d="M2060 1521 c0 -13 8 -21 23 -23 20 -3 22 -8 22 -73 0 -63 2 -70 20
-70 18 0 20 8 23 73 3 70 4 72 28 72 19 0 25 5 22 18 -3 14 -16 18 -71 20 -61
3 -67 1 -67 -17z"/>
<path d="M2210 1520 c0 -16 7 -20 35 -20 19 0 35 -2 35 -4 0 -3 -16 -31 -35
-63 -19 -32 -35 -63 -35 -69 0 -6 25 -9 68 -8 59 2 67 5 70 23 3 18 -2 21 -32
21 -20 0 -36 2 -36 4 0 3 16 32 35 65 19 32 35 62 35 65 0 3 -31 6 -70 6 -63
0 -70 -2 -70 -20z"/>
<path d="M2360 1535 c0 -3 12 -24 27 -48 15 -23 30 -62 33 -87 4 -37 9 -45 25
-45 17 0 21 8 23 44 2 29 14 59 33 87 35 52 35 54 4 54 -17 0 -29 -9 -40 -30
-9 -16 -18 -30 -20 -30 -2 0 -11 14 -20 30 -11 21 -23 30 -40 30 -14 0 -25 -2
-25 -5z"/>
<path d="M661 1344 c-37 -47 -24 -102 29 -124 77 -32 141 57 89 124 -16 20
-29 26 -59 26 -30 0 -43 -6 -59 -26z m91 -6 c29 -22 27 -72 -3 -88 -29 -16
-68 -4 -81 25 -23 50 40 97 84 63z"/>
<path d="M1251 1344 c-27 -34 -27 -74 -1 -102 28 -30 62 -36 98 -18 47 25 57
75 21 120 -16 20 -29 26 -59 26 -30 0 -43 -6 -59 -26z m104 -18 c32 -48 -22
-104 -74 -76 -30 16 -32 66 -3 88 25 19 60 14 77 -12z"/>
</g>
</svg>
